# xmcd
#
# Track frame offsets: 
#        150
#        11543
#        24107
#        37601
#        51833
#        62772
#        74110
#        86927
#        99963
#        113161
#        128004
#        139326
#        151586
#        164258
#        176663
#        190269
#        203143
#        216450
#
# Disc length: 3080 seconds
#
# Revision: 0
# Processed by: cddbd v1.5.2PL0 Copyright (c) Steve Scherf et al.
# Submitted via: ExactAudioCopy v0.99pb1
#
DISCID=f40c0612
DTITLE=BB King - The Essential BB King
DYEAR=2007
DGENRE=Blues
TTITLE0=Shake It Up and Go
TTITLE1=Boogie Woogie Woman
TTITLE2=Sneakin' Around
TTITLE3=Whole Lotta Love
TTITLE4=Let's Do The Boogie
TTITLE5=Did You Ever Love A Woman
TTITLE6=Bad Luck
TTITLE7=Blind Love
TTITLE8=Crying Won't Help You
TTITLE9=BB's Boogie
TTITLE10=She's Dynamite
TTITLE11=Please Hurry Home
TTITLE12=Got The Blues
TTITLE13=Highway Bound
TTITLE14=Three O'Clock Blues
TTITLE15=Walkin' and Cryin'
TTITLE16=Story From My Heart and Soul
TTITLE17=Please Help Me
EXTD=
EXTT0=
EXTT1=
EXTT2=
EXTT3=
EXTT4=
EXTT5=
EXTT6=
EXTT7=
EXTT8=
EXTT9=
EXTT10=
EXTT11=
EXTT12=
EXTT13=
EXTT14=
EXTT15=
EXTT16=
EXTT17=
PLAYORDER=
